<svg width="500" height="500" viewBox="0 0 500 500" xmlns="http://www.w3.org/2000/svg"><title>instagram-logo</title><g fill="none" fill-rule="evenodd"><path d="M249.9326 35.1357c-58.3725 0-65.6919.2474-88.6167 1.2934-22.877 1.0434-38.5012 4.677-52.1725 9.9906-14.1337 5.492-26.12 12.8412-38.0695 24.7899C59.1252 83.159 51.776 95.1454 46.2841 109.279c-5.3136 13.6713-8.9473 29.2954-9.9907 52.1725C35.2474 184.3764 35 191.6958 35 250.0683c0 58.3716.2474 65.691 1.2934 88.6158 1.0434 22.877 4.6771 38.5012 9.9907 52.1725 5.4919 14.1337 12.8411 26.12 24.7898 38.0695 11.9496 11.9487 23.9358 19.298 38.0695 24.7907 13.6713 5.3127 29.2955 8.9464 52.1725 9.9898 22.9248 1.046 30.2442 1.2934 88.6167 1.2934 58.3716 0 65.691-.2474 88.6158-1.2934 22.877-1.0434 38.5012-4.6771 52.1725-9.9898 14.1337-5.4928 26.12-12.842 38.0695-24.7907 11.9487-11.9496 19.298-23.9358 24.7907-38.0695 5.3127-13.6713 8.9464-29.2955 9.9898-52.1725 1.046-22.9248 1.2934-30.2442 1.2934-88.6158 0-58.3725-.2474-65.692-1.2934-88.6167-1.0434-22.877-4.677-38.5012-9.9898-52.1725-5.4927-14.1337-12.842-26.12-24.7907-38.0695-11.9495-11.9487-23.9358-19.298-38.0695-24.7899-13.6713-5.3135-29.2954-8.9472-52.1725-9.9906-22.9248-1.046-30.2442-1.2934-88.6158-1.2934zm0 38.7264c57.3888 0 64.1869.2193 86.8506 1.2533 20.9557.9556 32.3362 4.457 39.9098 7.4005 10.0325 3.899 17.1923 8.5564 24.713 16.078 7.5217 7.5208 12.1791 14.6806 16.0781 24.713 2.9435 7.5737 6.445 18.9542 7.4005 39.9099 1.034 22.6637 1.2533 29.4618 1.2533 86.8515 0 57.3887-.2193 64.1868-1.2533 86.8506-.9556 20.9556-4.457 32.3361-7.4005 39.9098-3.899 10.0325-8.5564 17.1923-16.078 24.713-7.5208 7.5216-14.6806 12.179-24.713 16.0781-7.5737 2.9435-18.9542 6.4449-39.9099 7.4004-22.6603 1.034-29.4575 1.2534-86.8506 1.2534-57.394 0-64.1903-.2193-86.8515-1.2534-20.9556-.9555-32.3361-4.457-39.9098-7.4004-10.0325-3.899-17.1923-8.5565-24.713-16.078-7.5208-7.5208-12.179-14.6806-16.0781-24.7131-2.9435-7.5737-6.4449-18.9542-7.4004-39.9098-1.034-22.6638-1.2534-29.4619-1.2534-86.8506 0-57.3897.2193-64.1878 1.2534-86.8515.9555-20.9557 4.457-32.3362 7.4004-39.9098 3.899-10.0325 8.5565-17.1923 16.078-24.713 7.5208-7.5217 14.6806-12.1791 24.7131-16.0781 7.5737-2.9435 18.9542-6.445 39.9098-7.4005 22.6638-1.034 29.4619-1.2533 86.8515-1.2533z" fill="#0A0B09"/><path d="M249.9326 321.7119c-39.5685 0-71.6445-32.076-71.6445-71.6436 0-39.5686 32.076-71.6445 71.6445-71.6445 39.5677 0 71.6436 32.076 71.6436 71.6445 0 39.5676-32.076 71.6436-71.6436 71.6436zm0-182.0146c-60.9568 0-110.371 49.4142-110.371 110.371 0 60.9559 49.4142 110.37 110.371 110.37 60.956 0 110.37-49.4141 110.37-110.37 0-60.9568-49.414-110.371-110.37-110.371zM390.4556 135.3367c0 14.2446-11.5477 25.7915-25.7923 25.7915-14.2438 0-25.7915-11.5469-25.7915-25.7915 0-14.2446 11.5477-25.7923 25.7915-25.7923 14.2446 0 25.7923 11.5477 25.7923 25.7923" fill="#0A0B09"/><path d="M35 35h430v430H35z"/></g></svg>